<svg aria-hidden="true" style="position: absolute; width: 0; height: 0; overflow: hidden;" version="1.1" xmlns="http://www.w3.org/2000/svg" xmlns:xlink="http://www.w3.org/1999/xlink">
<defs>
<symbol id="icon-close-burger-menu" viewBox="0 0 32 32">
<path fill="#000" style="fill: var(--color1, #000)" opacity="0.2" d="M0 0h32.056v32.056h-32.056z"></path>
<path fill="#2e2f42" style="fill: var(--color2, #2e2f42)" d="M32.056 3.23l-3.23-3.23-12.798 12.798-12.798-12.798-3.23 3.23 12.798 12.798-12.798 12.798 3.23 3.23 12.798-12.798 12.798 12.798 3.23-3.23-12.798-12.798 12.798-12.798z"></path>
</symbol>
<symbol id="icon-burger-menu" viewBox="0 0 47 32">
<path d="M-0.221 2.078c0-1.205 0.977-2.182 2.182-2.182v0h42.969c1.205 0 2.182 0.977 2.182 2.182s-0.977 2.182-2.182 2.182v0h-42.969c-1.205 0-2.182-0.977-2.182-2.182v0zM-0.221 15.617c0-1.205 0.977-2.182 2.182-2.182v0h42.969c1.205 0 2.182 0.977 2.182 2.182s-0.977 2.182-2.182 2.182v0h-42.969c-1.205 0-2.182-0.977-2.182-2.182v0zM-0.221 29.157c0-1.205 0.977-2.182 2.182-2.182v0h42.969c1.205 0 2.182 0.977 2.182 2.182s-0.977 2.182-2.182 2.182v0h-42.969c-1.205 0-2.182-0.977-2.182-2.182v0z"></path>
</symbol>
</defs>
</svg>
